<svg id="图层_1" data-name="图层 1" xmlns="http://www.w3.org/2000/svg" viewBox="0 0 1040.43 930.28">
  <defs>
    <style>
      .cls-1 {
        fill: #3094fa;
      }

      .cls-2 {
        fill: #fff;
      }

      .cls-3 {
        fill: #ccefff;
      }
    </style>
  </defs>
  <title>morentu</title>
  <g>
    <path class="cls-1" d="M92.65,857c-4.09,0-5.5-2.62-5.5-6.72V442.72a6.21,6.21,0,0,1,2-4.78L210.71,313a6.19,6.19,0,0,1,4.78-2h133.9c4.1,0,7.46,1.41,7.46,5.5s-3.36,5.5-7.46,5.5H218.22L98.15,445.45V850.27c0,3.41-1.4,6.72-5.5,6.72Zm936.58-539.2H963.69a5.5,5.5,0,0,1,0-11h61.36V274.17H756.16c-4.09,0-6.82-1.41-6.82-5.5s2.73-5.5,6.82-5.5h273.07a6.45,6.45,0,0,1,6.83,6.83v41a6.84,6.84,0,0,1-6.83,6.82Zm0,0" transform="translate(-29.35 -79.72)"/>
    <path class="cls-1" d="M1003.76,854.22c-4.1,0-6-2.58-6-6.68V314c0-4.1,1.4-6.83,5.5-6.83s5.5,2.73,5.5,6.83V847.54c0,3.41-.89,6.68-5,6.68Zm-1.84.15" transform="translate(-29.35 -79.72)"/>
    <rect class="cls-2" x="105.58" y="562.33" width="79.19" height="123.56"/>
    <path class="cls-1" d="M214.13,771.76H134.94a6.45,6.45,0,0,1-6.82-6.83V641.37a6.45,6.45,0,0,1,6.82-6.83h79.19a6.45,6.45,0,0,1,6.82,6.83V764.93a6.45,6.45,0,0,1-6.82,6.83Zm-75-11H210V645.54l-70.84-.08Zm2.65-2.65" transform="translate(-29.35 -79.72)"/>
    <rect class="cls-2" x="773.23" y="590.33" width="79.19" height="111.96"/>
    <path class="cls-1" d="M881.78,788.83H802.58a6.45,6.45,0,0,1-6.82-6.82V670a6.45,6.45,0,0,1,6.82-6.83h79.19A6.45,6.45,0,0,1,888.6,670V782a6.84,6.84,0,0,1-6.82,6.82Zm-75-11H877.6V674.22H806.76Zm2.65-2.65" transform="translate(-29.35 -79.72)"/>
    <rect class="cls-2" x="196.38" y="338.42" width="84.65" height="123.56"/>
    <path class="cls-1" d="M310.38,547.85H225.73A6.45,6.45,0,0,1,218.9,541V417.46a6.45,6.45,0,0,1,6.83-6.83h84.65a6.45,6.45,0,0,1,6.83,6.83V541a6.84,6.84,0,0,1-6.83,6.83Zm-80.48-11h76.3V421.63H229.9Z" transform="translate(-29.35 -79.72)"/>
    <rect class="cls-2" x="852.42" y="433.31" width="79.19" height="73.05"/>
    <path class="cls-1" d="M961,592.9H881.78a6.45,6.45,0,0,1-6.83-6.83V513a6.45,6.45,0,0,1,6.83-6.82H961a6.45,6.45,0,0,1,6.83,6.82v73A6.84,6.84,0,0,1,961,592.9Zm-75-11h70.84V517.2H885.95Zm2.65-2.66" transform="translate(-29.35 -79.72)"/>
    <rect class="cls-2" x="795.76" y="265.38" width="73.73" height="78.5"/>
    <path class="cls-1" d="M825.12,430.43a6.45,6.45,0,0,1-6.83-6.83V345.1a6.45,6.45,0,0,1,6.83-6.83h73.72a6.45,6.45,0,0,1,6.83,6.83v78.5a7.27,7.27,0,0,1-7.29,6.83Zm4.17-11h65.38V349.27H829.29Z" transform="translate(-29.35 -79.72)"/>
    <path class="cls-1" d="M749.34,592.41H353.39a6.45,6.45,0,0,1-6.82-6.82V136.95a6.45,6.45,0,0,1,6.82-6.83H749.34a6.45,6.45,0,0,1,6.83,6.83V585.59a6.84,6.84,0,0,1-6.83,6.82Zm-391.77-11h387.6V141.12H357.56Z" transform="translate(-29.35 -79.72)"/>
    <path class="cls-1" d="M749.34,857.1H353.39a6.45,6.45,0,0,1-6.82-6.83V638.64a6.45,6.45,0,0,1,6.82-6.83H749.34a6.45,6.45,0,0,1,6.83,6.83V850.27a6.84,6.84,0,0,1-6.83,6.83Zm-391.77-11h387.6V645.48l-387.6-2.69Z" transform="translate(-29.35 -79.72)"/>
    <path class="cls-1" d="M790.29,141.16h-471a6.45,6.45,0,0,1-6.82-6.83V86.55a6.45,6.45,0,0,1,6.82-6.83h471a6.45,6.45,0,0,1,6.83,6.83v47.78a6.84,6.84,0,0,1-6.83,6.83Zm-464.21-11H783.47V87.89H326.08Zm0-2.66" transform="translate(-29.35 -79.72)"/>
    <path class="cls-1" d="M790.29,642.83h-471a6.45,6.45,0,0,1-6.82-6.82V588.22a6.45,6.45,0,0,1,6.82-6.82h471a6.45,6.45,0,0,1,6.83,6.82V636a6.84,6.84,0,0,1-6.83,6.82Zm-466.86-11H786.12V592.38l-462.69,0Z" transform="translate(-29.35 -79.72)"/>
    <path class="cls-2" d="M554.78,110.74a23.89,23.89,0,1,1-23.89,23.89,24.19,24.19,0,0,1,23.89-23.89Zm0,0" transform="translate(-29.35 -79.72)"/>
    <path class="cls-1" d="M554.78,166.22A30.72,30.72,0,1,1,585.5,135.5a30.59,30.59,0,0,1-30.72,30.72Zm0-50.44a19.72,19.72,0,1,0,19.72,19.72,19.53,19.53,0,0,0-19.72-19.72Zm0,2.65" transform="translate(-29.35 -79.72)"/>
    <rect class="cls-2" x="610.76" y="130.28" width="68.27" height="68.27"/>
    <path class="cls-1" d="M708.38,285.1H640.11a6.45,6.45,0,0,1-6.83-6.83V210a6.45,6.45,0,0,1,6.83-6.83h68.26a6.45,6.45,0,0,1,6.83,6.83v68.27a6.85,6.85,0,0,1-6.83,6.83Zm-64.09-11h59.92V214.17H644.28Z" transform="translate(-29.35 -79.72)"/>
    <rect class="cls-1" x="639.39" y="130.28" width="11" height="68.27"/>
    <rect class="cls-1" x="610.76" y="158.92" width="68.27" height="11"/>
    <rect class="cls-2" x="385.48" y="259.51" width="68.27" height="68.27"/>
    <path class="cls-1" d="M483.1,414.32H414.83a6.45,6.45,0,0,1-6.83-6.83V339.23a6.45,6.45,0,0,1,6.83-6.83H483.1a6.45,6.45,0,0,1,6.83,6.83v68.27a6.85,6.85,0,0,1-6.83,6.83Zm-64.09-11h59.92V343.4H419Z" transform="translate(-29.35 -79.72)"/>
    <rect class="cls-1" x="414.11" y="259.51" width="11" height="68.27"/>
    <rect class="cls-1" x="385.48" y="288.14" width="68.27" height="11"/>
    <rect class="cls-2" x="610.76" y="388.74" width="68.27" height="68.27"/>
    <path class="cls-1" d="M708.38,543.55H640.11a6.45,6.45,0,0,1-6.83-6.83V468.45a6.45,6.45,0,0,1,6.83-6.83h68.26a6.45,6.45,0,0,1,6.83,6.83v68.27a6.85,6.85,0,0,1-6.83,6.83Zm-64.09-11h59.92V472.63H644.28Z" transform="translate(-29.35 -79.72)"/>
    <rect class="cls-1" x="639.39" y="388.74" width="11" height="68.27"/>
    <rect class="cls-1" x="610.76" y="417.37" width="68.27" height="11"/>
    <polygon class="cls-2" points="383.16 128.5 564 128.5 564 201.83 383.16 199.83 383.16 128.5"/>
    <path class="cls-1" d="M414.83,285.1a6.45,6.45,0,0,1-6.83-6.83V210a6.45,6.45,0,0,1,6.83-6.83h177.5a6.45,6.45,0,0,1,6.82,6.83v68.27a6.84,6.84,0,0,1-6.82,6.83Zm4.17-11H588.15V214.17H419Zm15.35-9.72" transform="translate(-29.35 -79.72)"/>
    <g>
      <g id="右">
        <path class="cls-3" d="M557.11,213.84s11.79,29.32,31,29.32V213.84" transform="translate(-29.35 -79.72)"/>
        <path class="cls-1" d="M588.15,248c-16.63,0-36.22-22.78-36.22-34.89a5.32,5.32,0,0,1,5.5-5.5,5.4,5.4,0,0,1,5.5,5.5c0,2,8.16,20.48,25.22,23.89v-19.8a5.5,5.5,0,1,1,11,0v27.31c0,3-1.69,3.49-5.78,3.49Z" transform="translate(-29.35 -79.72)"/>
      </g>
      <g id="左">
        <path class="cls-3" d="M450,214.17s-11.79,29.32-31,29.32V214.17" transform="translate(-29.35 -79.72)"/>
        <path class="cls-1" d="M413.78,248.31c-4.09,0-5.78-.51-5.78-3.49V217.51a5.5,5.5,0,1,1,11,0v19.8c17.07-3.42,25.22-21.84,25.22-23.89a5.4,5.4,0,0,1,5.5-5.5,5.32,5.32,0,0,1,5.5,5.5c0,12.11-19.59,34.89-36.22,34.89Z" transform="translate(-29.35 -79.72)"/>
      </g>
    </g>
    <polygon class="cls-2" points="499.22 257.72 680.05 257.72 680.05 331.06 499.22 329.06 499.22 257.72"/>
    <path class="cls-1" d="M530.88,414.32a6.45,6.45,0,0,1-6.83-6.83V339.23a6.45,6.45,0,0,1,6.83-6.83h177.5a6.45,6.45,0,0,1,6.82,6.83v68.27a6.84,6.84,0,0,1-6.82,6.83Zm4.17-11H704.21V343.4H535.06Zm15.35-9.72" transform="translate(-29.35 -79.72)"/>
    <g>
      <g id="右-2" data-name="右">
        <path class="cls-3" d="M673.16,343.07s11.79,29.32,31,29.32V343.07" transform="translate(-29.35 -79.72)"/>
        <path class="cls-1" d="M704.21,377.2c-16.63,0-36.22-22.78-36.22-34.89a5.32,5.32,0,0,1,5.5-5.5,5.4,5.4,0,0,1,5.5,5.5c0,2,8.16,20.48,25.22,23.89V346.4a5.5,5.5,0,1,1,11,0v27.31c0,3-1.69,3.49-5.78,3.49Z" transform="translate(-29.35 -79.72)"/>
      </g>
      <g id="左-2" data-name="左">
        <path class="cls-3" d="M566.1,343.4s-11.79,29.32-31,29.32V343.4" transform="translate(-29.35 -79.72)"/>
        <path class="cls-1" d="M529.84,377.53c-4.09,0-5.78-.51-5.78-3.49V346.73a5.5,5.5,0,1,1,11,0v19.8c17.07-3.42,25.22-21.84,25.22-23.89a5.4,5.4,0,0,1,5.5-5.5,5.32,5.32,0,0,1,5.5,5.5c0,12.11-19.59,34.89-36.22,34.89Z" transform="translate(-29.35 -79.72)"/>
      </g>
    </g>
    <polygon class="cls-2" points="383.16 386.95 564 386.95 564 460.28 383.16 458.28 383.16 386.95"/>
    <path class="cls-1" d="M414.83,543.55a6.45,6.45,0,0,1-6.83-6.83V468.45a6.45,6.45,0,0,1,6.83-6.83h177.5a6.45,6.45,0,0,1,6.82,6.83v68.27a6.84,6.84,0,0,1-6.82,6.83Zm4.17-11H588.15V472.63H419Zm15.35-9.72" transform="translate(-29.35 -79.72)"/>
    <g>
      <g id="右-3" data-name="右">
        <path class="cls-3" d="M557.11,472.29s11.79,29.32,31,29.32V472.29" transform="translate(-29.35 -79.72)"/>
        <path class="cls-1" d="M588.15,506.43c-16.63,0-36.22-22.78-36.22-34.89a5.32,5.32,0,0,1,5.5-5.5,5.4,5.4,0,0,1,5.5,5.5c0,2,8.16,20.48,25.22,23.89v-19.8a5.5,5.5,0,1,1,11,0v27.31c0,3-1.69,3.49-5.78,3.49Z" transform="translate(-29.35 -79.72)"/>
      </g>
      <g id="左-3" data-name="左">
        <path class="cls-3" d="M450,472.62s-11.79,29.32-31,29.32V472.62" transform="translate(-29.35 -79.72)"/>
        <path class="cls-1" d="M413.78,506.76c-4.09,0-5.78-.51-5.78-3.49V476a5.5,5.5,0,1,1,11,0v19.8c17.07-3.42,25.22-21.84,25.22-23.89a5.4,5.4,0,0,1,5.5-5.5,5.32,5.32,0,0,1,5.5,5.5c0,12.11-19.59,34.89-36.22,34.89Z" transform="translate(-29.35 -79.72)"/>
      </g>
    </g>
    <rect class="cls-2" x="358.17" y="661.32" width="88.75" height="54.61"/>
    <path class="cls-1" d="M476.27,802.48H387.53a6.45,6.45,0,0,1-6.83-6.83V741a6.45,6.45,0,0,1,6.83-6.83h88.75A6.45,6.45,0,0,1,483.1,741v54.61a6.84,6.84,0,0,1-6.82,6.83Zm-84.57-11h80.4V745.21H391.7Zm2.65-2.66" transform="translate(-29.35 -79.72)"/>
    <g>
      <g id="右-4" data-name="右">
        <path class="cls-3" d="M441.05,745.21s11.79,29.32,31,29.32V745.21" transform="translate(-29.35 -79.72)"/>
        <path class="cls-1" d="M472.1,779.35c-16.63,0-36.22-22.78-36.22-34.89a5.32,5.32,0,0,1,5.5-5.5,5.4,5.4,0,0,1,5.5,5.5c0,2,8.16,20.48,25.22,23.89v-19.8a5.5,5.5,0,1,1,11,0v27.31c0,3-1.69,3.49-5.78,3.49Z" transform="translate(-29.35 -79.72)"/>
      </g>
      <g id="左-4" data-name="左">
        <path class="cls-3" d="M422.74,745.21s-11.79,29.32-31,29.32V745.21" transform="translate(-29.35 -79.72)"/>
        <path class="cls-1" d="M386.48,779.35c-4.09,0-5.78-.51-5.78-3.49V748.55a5.5,5.5,0,1,1,11,0v19.8c17.07-3.42,25.22-21.84,25.22-23.89a5.4,5.4,0,0,1,5.5-5.5,5.32,5.32,0,0,1,5.5,5.5c0,12.11-19.59,34.89-36.22,34.89Z" transform="translate(-29.35 -79.72)"/>
      </g>
    </g>
    <rect class="cls-2" x="610.76" y="661.32" width="88.75" height="54.61"/>
    <path class="cls-1" d="M728.86,802.48H640.11a6.45,6.45,0,0,1-6.83-6.83V741a6.45,6.45,0,0,1,6.83-6.83h88.75a6.45,6.45,0,0,1,6.82,6.83v54.61a6.84,6.84,0,0,1-6.82,6.83Zm-84.57-11h80.4V745.21h-80.4Zm2.65-2.66" transform="translate(-29.35 -79.72)"/>
    <g>
      <g id="右-5" data-name="右">
        <path class="cls-3" d="M693.64,745.21s11.79,29.32,31,29.32V745.21" transform="translate(-29.35 -79.72)"/>
        <path class="cls-1" d="M724.68,779.35c-16.63,0-36.22-22.78-36.22-34.89A5.32,5.32,0,0,1,694,739a5.4,5.4,0,0,1,5.5,5.5c0,2,8.16,20.48,25.22,23.89v-19.8a5.5,5.5,0,1,1,11,0v27.31c0,3-1.69,3.49-5.78,3.49Z" transform="translate(-29.35 -79.72)"/>
      </g>
      <g id="左-5" data-name="左">
        <path class="cls-3" d="M675.33,745.21s-11.79,29.32-31,29.32V745.21" transform="translate(-29.35 -79.72)"/>
        <path class="cls-1" d="M639.06,779.35c-4.09,0-5.78-.51-5.78-3.49V748.55a5.5,5.5,0,1,1,11,0v19.8c17.07-3.42,25.22-21.84,25.22-23.89A5.4,5.4,0,0,1,675,739a5.32,5.32,0,0,1,5.5,5.5c0,12.11-19.59,34.89-36.22,34.89Z" transform="translate(-29.35 -79.72)"/>
      </g>
    </g>
    <rect class="cls-1" x="460.57" y="647.66" width="136.53" height="11" rx="5.5" ry="5.5"/>
    <path class="cls-3" d="M517.23,734.21c-.68-3.41-4.09-47.79,41-47.79,46.42,0,41,47.79,41,47.79Zm0,0" transform="translate(-29.35 -79.72)"/>
    <path class="cls-1" d="M599.15,738.38H517.23q-4.1,0-6.15-4.1a8.69,8.69,0,0,1-.68-4.09c-.68-6.83-.68-25.94,12.29-39.59,8.19-9.56,20.48-13.66,35.5-13.66,15.7,0,27.31,4.78,36.18,14.33,14.34,16.39,11.6,40.28,11.6,41-.68,3.41-3.41,6.15-6.82,6.15Zm-78-11.11h74c0-14.27-3.38-21.83-8.93-28.6-5.46-6.14-16.53-10.73-28.14-10.73s-22.24,4.39-27.7,10.54c-6.83,7.51-9.25,19.42-9.25,26.25Z" transform="translate(-29.35 -79.72)"/>
    <path class="cls-1" d="M599.15,857.1H517.23a6.45,6.45,0,0,1-6.82-6.83V734.21a6.45,6.45,0,0,1,6.82-6.82h81.92a6.45,6.45,0,0,1,6.82,6.82V850.27a6.84,6.84,0,0,1-6.82,6.83Zm-77.75-11H595L595,738.39H521.4Z" transform="translate(-29.35 -79.72)"/>
    <g>
      <rect class="cls-1" y="766.33" width="1040.43" height="11" rx="5.5" ry="5.5"/>
      <rect class="cls-1" x="608.7" y="865.41" width="183.13" height="11" rx="5.5" ry="5.5"/>
      <rect class="cls-1" x="921.89" y="814.33" width="35.19" height="11" rx="5.5" ry="5.5"/>
      <rect class="cls-1" x="554.16" y="919.28" width="85.9" height="11" rx="5.5" ry="5.5"/>
      <rect class="cls-1" x="48.5" y="814.33" width="89.41" height="11" rx="5.5" ry="5.5"/>
      <rect class="cls-1" x="136.57" y="865.41" width="372.76" height="11" rx="5.5" ry="5.5"/>
      <rect class="cls-1" x="170.74" y="814.33" width="711.17" height="11" rx="5.5" ry="5.5"/>
    </g>
  </g>
</svg>
