<?xml version="1.0" standalone="no"?>
<!DOCTYPE svg PUBLIC "-//W3C//DTD SVG 1.1//EN" "http://www.w3.org/Graphics/SVG/1.1/DTD/svg11.dtd" >
<svg xmlns="http://www.w3.org/2000/svg">
<metadata>
Created by FontForge 20120731 at Sun Jan  4 19:07:56 2015
 By Ads
</metadata>
<defs>
<font id="iconfont" horiz-adv-x="1024" >
  <font-face 
    font-family="iconfont"
    font-weight="500"
    font-stretch="normal"
    units-per-em="1024"
    panose-1="2 0 6 3 0 0 0 0 0 0"
    ascent="812"
    descent="-212"
    x-height="792"
    bbox="-0.349515 -212 1024 812"
    underline-thickness="50"
    underline-position="-100"
    unicode-range="U+0078-E62B"
  />
<missing-glyph horiz-adv-x="374" 
d="M34 0v682h272v-682h-272zM68 34h204v614h-204v-614z" />
    <glyph glyph-name=".notdef" horiz-adv-x="374" 
d="M34 0v682h272v-682h-272zM68 34h204v614h-204v-614z" />
    <glyph glyph-name=".null" horiz-adv-x="0" 
 />
    <glyph glyph-name="nonmarkingreturn" horiz-adv-x="341" 
 />
    <glyph glyph-name="x" unicode="x" horiz-adv-x="1001" 
d="M281 543q-27 -1 -53 -1h-83q-18 0 -36.5 -6t-32.5 -18.5t-23 -32t-9 -45.5v-76h912v41q0 16 -0.5 30t-0.5 18q0 13 -5 29t-17 29.5t-31.5 22.5t-49.5 9h-133v-97h-438v97zM955 310v-52q0 -23 0.5 -52t0.5 -58t-10.5 -47.5t-26 -30t-33 -16t-31.5 -4.5q-14 -1 -29.5 -0.5
t-29.5 0.5h-32l-45 128h-439l-44 -128h-29h-34q-20 0 -45 1q-25 0 -41 9.5t-25.5 23t-13.5 29.5t-4 30v167h911zM163 247q-12 0 -21 -8.5t-9 -21.5t9 -21.5t21 -8.5q13 0 22 8.5t9 21.5t-9 21.5t-22 8.5zM316 123q-8 -26 -14 -48q-5 -19 -10.5 -37t-7.5 -25t-3 -15t1 -14.5
t9.5 -10.5t21.5 -4h37h67h81h80h64h36q23 0 34 12t2 38q-5 13 -9.5 30.5t-9.5 34.5q-5 19 -11 39h-368zM336 498v228q0 11 2.5 23t10 21.5t20.5 15.5t34 6h188q31 0 51.5 -14.5t20.5 -52.5v-227h-327z" />
    <glyph glyph-name="uniE600" unicode="&#xe600;" 
d="M320 409h-64q-5 0 -9 -4t-4 -9v-64q0 -13 13 -13h64q3 0 5 1t4 3t3 4t1 5v64q0 3 -1 5t-3 4t-4 3t-5 1zM320 217h-64q-5 0 -9 -4t-4 -9v-64q0 -3 2 -6t5 -5t6 -2h64q3 0 6 2t5 5t2 6v64q0 5 -4 9t-9 4zM320 25h-64q-5 0 -9 -4t-4 -9v-64q0 -5 4 -9t9 -4h64q3 0 6 2t5 5
t2 6v64q0 5 -4 9t-9 4zM512 409h-64q-3 0 -6 -2t-5 -5t-2 -6v-64q2 -11 13 -13h64q2 0 4 0.5t4 2.5l2 2q2 2 2.5 4t0.5 4v64q0 3 -1 5t-3 4t-4 3t-5 1zM512 217h-64q-3 0 -6 -2t-5 -5t-2 -6v-64q0 -3 2 -6t5 -5t6 -2h64q5 0 9 4t4 9v64q0 5 -4 9t-9 4zM512 25h-64
q-3 0 -6 -2t-5 -5t-2 -6v-64q0 -5 4 -9t9 -4h64q5 0 9 4t4 9v64q0 5 -4 9t-9 4zM864 364h-160v96q0 40 -28 68t-68 28h-32v160q0 40 -28 68t-68 28h-96h-96q-40 0 -68 -28t-28 -68v-160h-32q-40 0 -68 -28t-28 -68v-352v-64v-160q0 -40 28 -68t68 -28h224h320h160
q40 0 68 28t28 68v128v96v160q0 40 -28 68t-68 28zM256 716q0 13 9.5 22.5t22.5 9.5h96h96q13 0 22.5 -9.5t9.5 -22.5v-160h-128h-128v160zM640 -148h-256h-224q-13 0 -22.5 9.5t-9.5 22.5v160v64v352q0 13 9.5 22.5t22.5 9.5h32h64h128h128h64h32q13 0 22.5 -9.5t9.5 -22.5
v-352v-256zM896 12v-128q0 -13 -9.5 -22.5t-22.5 -9.5h-160v256v192h160q13 0 22.5 -9.5t9.5 -22.5v-160v-96zM832 217h-64q-5 0 -9 -4t-4 -9v-64q0 -5 4 -9t9 -4h64q5 0 9 4t4 9v64q0 5 -4 9t-9 4zM832 25h-64q-3 0 -6 -2t-5 -5t-2 -6v-64q0 -5 4 -9t9 -4h64q3 0 6 2t5 5
t2 6v64q0 5 -4 9t-9 4zM429 620v64q0 5 -4 9t-9 4h-64q-3 0 -6 -2t-5 -5t-2 -6v-64q0 -5 4 -9t9 -4h64q3 0 6 2t5 5t2 6z" />
    <glyph glyph-name="uniE601" unicode="&#xe601;" 
d="M512 -113zM416 -113q0 40 28 68t68 28t68 -28t28 -68q0 -26 -13 -48t-35 -35t-48 -13t-48 13t-35 35t-13 48zM512 620q-145 0 -276.5 -52.5t-235.5 -147.5l63 -79q91 84 206 131t243 47t243 -47t206 -131l63 79q-104 95 -235.5 147.5t-276.5 52.5zM138 247l63 -80
q24 24 51.5 44.5t58 36t63 26.5t67.5 17t71 6q26 0 51.5 -3t49.5 -9t47 -14t45 -19t42.5 -24t39 -28.5t36.5 -32.5l63 80q-49 47 -107.5 80.5t-126.5 52t-140 18.5q-107 0 -203.5 -39.5t-170.5 -111.5zM512 177q-34 0 -67.5 -7.5t-63 -21.5t-55.5 -33t-48 -44l64 -80
q30 39 74.5 61.5t95.5 22.5q34 0 66 -10.5t58 -29.5t46 -44l64 80q-44 50 -105 78t-129 28z" />
    <glyph glyph-name="uniE602" unicode="&#xe602;" 
d="M128 684h128v-320h-128v320zM320 620v-320h-256v320h-64v-320v-64h128v-448h128v128h192v-64h-128v-64h512v64h-128v64h320v704h-704zM896 12h-192h-256h-192v224h128v64v224h512v-512z" />
    <glyph glyph-name="uniE603" unicode="&#xe603;" 
d="M576 716h-192h-192v-896h192v256h192q133 0 226.5 93.5t93.5 226.5t-93.5 226.5t-226.5 93.5zM576 236h-192v320h192q66 0 113 -47t47 -113t-47 -113t-113 -47z" />
    <glyph glyph-name="uniE604" unicode="&#xe604;" 
d="M537 753q-91 0 -174 -35.5t-143 -95.5t-95.5 -143t-35.5 -174.5t35.5 -174.5t95.5 -142.5t143 -95t174 -35.5t174 35.5t143 95t95.5 142.5t35.5 174.5t-35.5 174.5t-95.5 143t-143 95.5t-174 35.5zM839 456l-305 -363q0 -1 -1 -2q-1 0 -1.5 -0.5t-0.5 -1.5t-1 -1
q-13 -16 -34.5 -18t-37.5 12l-216 180q-16 14 -18 35t12 37.5t35 18.5t37 -12l177 -148l275 328q9 11 22 15.5t26.5 2.5t24 -11t15 -22t2.5 -26.5t-11 -23.5z" />
    <glyph glyph-name="uniE605" unicode="&#xe605;" 
d="M537 689q104 0 192.5 -51.5t140 -140t51.5 -193t-51.5 -193t-140 -139.5t-192.5 -51t-192.5 51t-140 139.5t-51.5 193.5q0 150 103 261q102 109 249 121q16 2 32 2zM537 753q-91 0 -174 -35.5t-143 -95.5t-95.5 -143t-35.5 -174.5t35.5 -174.5t95.5 -142.5t143 -95
t174 -35.5t174 35.5t143 95t95.5 142.5t35.5 174.5t-35.5 174.5t-95.5 143t-143 95.5t-174 35.5z" />
    <glyph glyph-name="uniE606" unicode="&#xe606;" 
d="M800 588h-96v128h-64v-128h-256v128h-64v-128h-96q-40 0 -68 -28t-28 -68v-128v-64v-416q0 -40 28 -68t68 -28h672v64h-672q-13 0 -22.5 9.5t-9.5 22.5v416h640h32h32v192q0 40 -28 68t-68 28zM192 364v128q0 13 9.5 22.5t22.5 9.5h576q13 0 22.5 -9.5t9.5 -22.5v-128
h-640zM715 -105l136 136l45 45l-45 45l-136 136l-45 -45l104 -104h-390v-64h390l-104 -104z" />
    <glyph glyph-name="uniE607" unicode="&#xe607;" 
d="M800 588h-96v128h-64v-128h-256v128h-64v-128h-96q-40 0 -68 -28t-28 -68v-128v-64v-416q0 -40 28 -68t68 -28h672v64h-672q-13 0 -22.5 9.5t-9.5 22.5v416h640h32h32v192q0 40 -28 68t-68 28zM192 364v128q0 13 9.5 22.5t22.5 9.5h576q13 0 22.5 -9.5t9.5 -22.5v-128
h-640zM610 212l-45 45l-136 -136l-45 -45v0l45 -45l136 -136l45 45l-104 104h390v64h-390z" />
    <glyph glyph-name="uniE608" unicode="&#xe608;" horiz-adv-x="1025" 
d="M960 684h-576v-64h576v-512h-256h-128h-192v-64h192v-128h-192v-64h192h128h192v64h-192v128h256h64v64v512v64h-64zM224 556zM128 556q0 26 13 48t35 35t48 13q39 0 67.5 -28.5t28.5 -68t-28.5 -67.5t-67.5 -28q-11 0 -22 2.5t-20.5 7t-17.5 11.5t-15 15t-11.5 17.5
t-7 20.5t-2.5 22zM384 236v-64l192 192l128 -64l192 192v64l-192 -192l-129 63q-1 0 -110.5 0.5t-214.5 0.5h-109q-2 0 -10.5 -2.5t-19 -8t-12.5 -13.5l-66 -247q-3 -13 3.5 -24.5t19.5 -15t24.5 3.5t14.5 19l33 124v-380q0 -13 9.5 -22.5t22.5 -9.5t22.5 9.5t9.5 22.5v224
h64v-224q0 -13 9.5 -22.5t22.5 -9.5t22.5 9.5t9.5 22.5v480h192z" />
    <glyph glyph-name="uniE609" unicode="&#xe609;" 
d="M576 492q-13 0 -22.5 -9.5t-9.5 -22.5v-128h-128q-13 0 -22.5 -9.5t-9.5 -22.5t9.5 -22.5t22.5 -9.5h160q13 0 22.5 9.5t9.5 22.5v160q0 13 -9.5 22.5t-22.5 9.5zM1024 556q0 80 -56 136t-136 56q-31 0 -60 -9.5t-52.5 -27t-41.5 -41.5q-51 14 -102 14q-17 0 -35 -1.5
t-34.5 -5t-32.5 -7.5q-27 36 -67.5 57t-86.5 21q-80 0 -136 -56t-56 -136q0 -31 10 -60t27 -52.5t41 -40.5q-14 -52 -14 -103q0 -85 35 -160.5t97 -128.5l-64 -111q-6 -11 -3 -24t15 -19.5t24.5 -3.5t19.5 15l60 105q93 -57 200 -57q54 0 104.5 14.5t95.5 42.5l60 -105
q7 -11 20 -14.5t24.5 3t14.5 19t-3 24.5l-64 111q62 53 97 128.5t35 160.5q0 51 -14 103q24 17 41 40.5t27 52.5t10 60zM192 556q0 53 37.5 90.5t90.5 37.5q26 0 49 -10t41 -28q-121 -58 -179 -179q-39 39 -39 89zM576 -20q-132 0 -226 94t-94 226t94 226t226 94t226 -94
t94 -226t-94 -226t-226 -94zM921 467q-18 39 -45 72.5t-61 60.5t-73 46q39 38 90 38q53 0 90.5 -37.5t37.5 -90.5q0 -50 -39 -89z" />
    <glyph glyph-name="uniE60A" unicode="&#xe60a;" 
d="M780 798q9 -9 12.5 -21.5t0 -25t-12.5 -21.5l-192 -192q-6 -6 -8.5 -14.5t0 -16.5t8.5 -14q5 -5 11 -7.5t12 -2.5t12 2.5t10 7.5l193 192q14 14 33.5 14t33.5 -14q24 -24 10 -54q-4 -8 -10 -14l-192 -192q-9 -10 -9 -23t9 -22.5t22.5 -9.5t22.5 9l193 193q9 9 21.5 12
t24.5 0t21.5 -12.5t12.5 -21.5t0 -24.5t-12 -21.5l-238 -238q-13 -12 -82.5 -13.5t-108.5 3.5l-442 -442q-19 -19 -45.5 -19t-45.5 19l-23 22q-18 19 -18 45.5t18 45.5l443 442q-13 169 10 191l237 238q14 14 34 14t34 -14zM399 391q0 2 -0.5 6t-0.5 6l-14 15l-294 294
q-32 32 -51.5 44t-25 10.5t-13.5 -8.5q1 -54 6.5 -97t21 -93t43 -98t71.5 -106t106 -125zM615 187h-6h-6l-92 -92l258 -288q9 -9 21 -14t24 -5t24 5t21 14l23 22q19 19 19 45.5t-19 45.5z" />
    <glyph glyph-name="uniE60B" unicode="&#xe60b;" 
d="M512 428h-96v128h64q17 0 31.5 8.5t23 22.5t9.5 31q135 -11 243 -117l45 46q-39 38 -79.5 65t-78.5 41t-68 20.5t-62 8.5v2q0 27 -18.5 45.5t-45.5 18.5h-256q-27 0 -45.5 -18.5t-18.5 -45.5v-64q0 -27 18.5 -45.5t45.5 -18.5h64v-128h-96q-53 0 -90.5 -37.5t-37.5 -90.5
v-384q0 -53 37.5 -90.5t90.5 -37.5h320q53 0 90.5 37.5t37.5 90.5v384q0 53 -37.5 90.5t-90.5 37.5zM922 270l-90 158l-90 -158q-38 -39 -38 -93.5t38 -93.5q14 -15 32.5 -25t38 -12.5t39 0t38 12.5t32.5 25q38 39 38 93.5t-38 93.5z" />
    <glyph glyph-name="uniE60C" unicode="&#xe60c;" 
d="M829 617q-52 51 -116.5 83.5t-132.5 42t-136 0t-132.5 -42t-116.5 -83.5q-64 -65 -97.5 -148.5t-33.5 -168.5t33.5 -168.5t98 -148t148 -98t168.5 -33.5t168.5 33.5t148.5 97.5q86 86 116.5 201.5t0 231t-116.5 201.5zM738 164q13 -12 17 -28.5t0 -33t-17 -28.5
q-7 -8 -16.5 -12.5t-19 -6t-19 0t-19 6t-16.5 12.5l-136 136l-136 -136q-19 -19 -45 -19t-45 18.5t-19 45t19 45.5l136 136l-136 136q-19 19 -19 45t19 45t45 19t45 -19l136 -136l136 136q19 19 45 19t45 -19q13 -12 17 -28.5t0 -33t-17 -28.5l-136 -136z" />
    <glyph glyph-name="uniE60D" unicode="&#xe60d;" 
d="M512 748q-122 0 -225 -60t-163 -163t-60 -225t60 -225t163 -163t225 -60t225 60t163 163t60 225t-60 225t-163 163t-225 60zM544 -82v126h-64v-126q-140 11 -239.5 110.5t-110.5 239.5h126v64h-126q11 140 110.5 239.5t239.5 110.5v-126h64v126q140 -11 239.5 -110.5
t110.5 -239.5h-126v-64h126q-11 -140 -110.5 -239.5t-239.5 -110.5zM512 300zM416 300q0 40 28 68t68 28t68 -28t28 -68t-28 -68t-68 -28t-68 28t-28 68z" />
    <glyph glyph-name="uniE60E" unicode="&#xe60e;" 
d="M871 28l-272 272l272 272q7 7 11.5 16t6 19t0 19.5t-6 19t-11.5 16.5q-19 19 -45.5 19t-45.5 -19l-271 -271l-272 271q-19 19 -45 19t-45 -19t-19 -45.5t19 -44.5l271 -272l-271 -272q-19 -18 -19 -44.5t19 -45.5t45.5 -19t44.5 19l272 271l271 -271q19 -19 45.5 -19
t45.5 19q7 7 11.5 16.5t6 19t0 19.5t-6 19t-11.5 16z" />
    <glyph glyph-name="uniE60F" unicode="&#xe60f;" 
d="M581 300l389 389q5 4 8 9t4.5 10.5t2.5 11t0 11.5t-2.5 11t-4.5 10t-8 10q-15 15 -36 15t-36 -15l-389 -390l-389 390q-15 15 -36.5 15t-36.5 -15t-15 -36.5t15 -36.5l389 -389l-389 -389q-15 -15 -15 -36.5t15 -36.5t36.5 -15t36.5 15l389 390l389 -390q10 -9 23 -12.5
t26.5 0t23 13t13 23t0 26.5t-13.5 23z" />
    <glyph glyph-name="uniE610" unicode="&#xe610;" 
d="M864 374l160 74l-512 236l-512 -236l160 -74l-160 -74l160 -74l-160 -74l512 -236l512 236l-160 74l160 74zM153 448l359 165l359 -165l-359 -166l-199 92zM236 339l276 -128l276 128l83 -39l-359 -166l-359 166zM871 152l-359 -165l-359 165l83 39l276 -127l276 127z
" />
    <glyph glyph-name="uniE611" unicode="&#xe611;" 
d="M864 607l160 160l-45 45l-160 -160h-499v128h-96v-128h-128v-96h128v-544h544v-128h96v128h128v96h-128v499zM723 556l-403 -403v403h403zM365 108l403 403v-403h-403z" />
    <glyph glyph-name="uniE612" unicode="&#xe612;" 
d="M761 740l-377 -75q-71 14 -137 -10q-39 -14 -71.5 -39.5t-54 -58.5t-33 -71t-10 -79t15.5 -80q13 -34 34 -63t47.5 -49.5t58.5 -34t66 -18.5l161 -307l181 66l-67 206l60 22l-27 146l263 144q31 12 51.5 46.5t22.5 73t-9 74.5q-19 53 -73 88.5t-102 18.5zM300 592
q39 14 76 -3.5t51.5 -56t-3 -76t-56.5 -51.5h-1q35 52 14 110q-5 15 -13.5 27t-19 22t-23 17t-26.5 11h1zM168 398q-1 42 27 72t69 31q27 1 50.5 -11.5t37.5 -35t15 -49.5q-39 49 -101 46.5t-98 -53.5zM292 323q-9 -30 -3 -58.5t24 -51.5h-1q-26 8 -44.5 27.5t-24.5 44
t1 51.5q11 40 47 60t76 9q-10 -4 -20 -10t-18.5 -13.5t-15.5 -16.5t-12.5 -20t-8.5 -22zM532 293q-15 -23 -39 -34.5t-50.5 -9.5t-48.5 17t-34 39t-10 50.5t17 48.5v1q3 -63 54.5 -98t111.5 -14h-1zM508 387q-22 -17 -48 -20.5t-50.5 6.5t-41.5 31q0 1 -1 1q61 -17 110 21
t47 101h1q25 -33 20 -74t-37 -66zM860 469q-26 -8 -51.5 0t-48.5 31.5t-34 56.5q-19 49 -5 94t51 59q26 8 51.5 0t48 -31.5t34.5 -56.5q7 -19 9 -39t-1 -38t-10 -33t-18.5 -26.5t-25.5 -16.5z" />
    <glyph glyph-name="uniE613" unicode="&#xe613;" horiz-adv-x="1025" 
d="M881 251l42 44l101 -71l-42 -45zM704 375l43 45l126 -90l-42 -44zM558 479l38 47l100 -71l-42 -44zM315 319q-9 -9 -20 -15t-23 -7.5t-23.5 0t-22.5 7.5t-20 15l-22 25q-10 -50 -22.5 -144t-12.5 -135q0 -50 9 -88t20.5 -57.5t34 -53.5t37.5 -60q-66 40 -119 106.5
t-87 155t-42 185.5q-11 134 29.5 248t120.5 180.5t180 66.5q27 0 54 -5.5t54 -15.5l-2 -1l-2 -1q13 -6 23 -16l54 -59q23 -24 23 -58t-23 -59zM422 166l-42 -44l-71 103l44 41zM436 359l42 44l84 -89l-41 -44zM546 -14l-42 -44l-88 129l41 44zM653 -168l-42 -44l-71 103
l42 44zM563 226l41 44l106 -111l-42 -44zM752 114l84 -88l-42 -45l-84 89z" />
    <glyph glyph-name="uniE614" unicode="&#xe614;" 
d="M829 617q-52 51 -116.5 83.5t-132.5 42t-136 0t-132.5 -42t-116.5 -83.5q-86 -86 -116.5 -201.5t0 -231t116.5 -201.5q65 -64 148.5 -97.5t168.5 -33.5t168.5 33.5t148.5 97.5q86 86 116.5 201.5t0 231t-116.5 201.5zM547 27q-17 -15 -40 -15t-40 15t-17 42q0 24 16 40
q9 9 19 13t22 4q24 0 40.5 -16.5t16.5 -40.5q0 -27 -17 -42zM689 379q-4 -8 -9 -15t-10.5 -14t-11.5 -12q-9 -9 -25.5 -24t-39.5 -36q-13 -12 -21 -21q-4 -4 -6.5 -8t-4.5 -8q-4 -7 -6 -15q-3 -10 -7 -26q-3 -20 -14.5 -30t-30.5 -10q-10 0 -18 3.5t-15 9.5q-13 14 -13 39
q0 32 9.5 55t26.5 41q15 17 44 42q23 21 35 32l10 12q5 6 8 12q8 14 8 29q0 4 -0.5 8t-1 7.5t-2 6.5t-2.5 6.5t-3 6.5l-4 6q-2 3 -5 6l-5 5q-11 10 -26 15.5t-32 5.5q-9 0 -16.5 -1t-14 -2.5t-12 -4t-10.5 -6t-9 -7.5q-20 -21 -34 -63q-12 -43 -49 -43q-10 0 -19 4t-17 11
q-14 16 -14 33q0 18 5.5 36.5t17.5 36.5q23 37 68 62q45 24 104 24q55 0 97 -20.5t65 -55.5q12 -17 17.5 -36t5.5 -40q0 -16 -3 -30t-10 -27z" />
    <glyph glyph-name="uniE615" unicode="&#xe615;" 
d="M761 641q-33 35 -74.5 59t-85 36t-89.5 12t-89.5 -12t-85 -36t-75.5 -59q-64 -67 -89 -155.5t-7 -178t76 -160.5l-1 -1l271 -294l271 294l-1 1q43 53 64 119t18.5 131.5t-28.5 129.5t-75 114zM708 208l-10 -13l-186 -201l-183 198l-13 16q-65 80 -60.5 186t76.5 180
q75 78 180 78t180 -78q72 -74 76.5 -180t-60.5 -186zM512 395zM416 395q0 40 28 68t68 28q26 0 48 -13t35 -35t13 -48t-13 -48t-35 -35t-48 -13t-48 13t-35 35t-13 48z" />
    <glyph glyph-name="uniE616" unicode="&#xe616;" 
d="M796 343l-448 448q-15 15 -36 15t-36 -15t-15 -36t15 -36l411 -412l-416 -417q-10 -9 -13.5 -22.5t0 -26.5t13.5 -23q7 -7 17 -11t19.5 -4t19 4t16.5 11l453 453q15 15 15 36t-15 36z" />
    <glyph glyph-name="uniE617" unicode="&#xe617;" 
d="M337 302l416 417q15 15 15 36t-15 36t-36 15t-36 -15l-453 -452q-15 -15 -15 -36.5t15 -36.5l448 -448q15 -15 36 -15t36 15t15 36t-15 36z" />
    <glyph glyph-name="uniE618" unicode="&#xe618;" 
d="M704 620q0 40 -28 68t-68 28h-192q-40 0 -68 -28t-28 -68v-96h-64v-640h512v640h-64v96zM384 620q0 13 9.5 22.5t22.5 9.5h192q13 0 22.5 -9.5t9.5 -22.5v-96h-256v96zM832 524v-640q53 0 90.5 37.5t37.5 90.5v384q0 53 -37.5 90.5t-90.5 37.5zM64 396v-384
q0 -53 37.5 -90.5t90.5 -37.5v640q-53 0 -90.5 -37.5t-37.5 -90.5z" />
    <glyph glyph-name="uniE619" unicode="&#xe619;" 
d="M957 646q-6 18 -40.5 28.5t-90.5 8t-113 -22.5l-150 -68l-268 188l-90 -33l201 -225l-189 -80l-10 -5l-147 53l-60 -22l175 -106q9 -9 67.5 -1t150.5 27.5t177 40t147.5 35.5t61.5 15q84 31 136 85t42 82zM992 108h-32l-35 96q-14 40 -52.5 68t-78.5 28h-308
q-40 0 -78.5 -28t-52.5 -68l-35 -96h-32q-13 0 -22.5 -9.5t-9.5 -22.5t9.5 -22.5t22.5 -9.5h32v-224h128v64h384v-64h128v224h32q13 0 22.5 9.5t9.5 22.5t-9.5 22.5t-22.5 9.5zM419 204q2 6 7 12t10.5 10.5t12.5 7t14 2.5h354q14 0 26.5 -9.5t17.5 -22.5l35 -96h-512z
M352 -20v64h96l32 -64h-128zM512 -52l-32 64h320l-32 -64h-256zM928 -20h-128l32 64h96v-64z" />
    <glyph glyph-name="uniE61A" unicode="&#xe61a;" 
d="M960 364h-64v128h-64v64h-128v-192h-384v192h-128v-64h-64v-128h-64v-64h64v-128h64v-64h128v192h384v-192h128v64h64v128h64v64z" />
    <glyph glyph-name="uniE61B" unicode="&#xe61b;" 
d="M848 392zM704 392q0 39 19.5 72.5t52.5 52.5t72 19q60 0 102 -42t42 -102q0 -39 -19 -72t-52.5 -52.5t-72.5 -19.5q-60 0 -102 42t-42 102zM350 80q111 59 162 59q48 0 160 -57q96 51 140 56l-112 112l-248 247l235 165q20 13 21.5 35t-15.5 39t-43 19.5t-45 -11.5
l-282 -197q-13 -9 -18 -22t-2 -27t14 -25l144 -145l-283 -198l169 -49q2 -1 3 -1zM992 -20q-12 0 -65 28q-67 36 -95 36t-95 -36q-53 -28 -65 -28t-65 28q-67 36 -95 36t-95 -36q-53 -28 -65 -28q-4 0 -11.5 2.5t-18 7.5t-17 8.5t-18.5 9.5q-67 36 -95 36t-95 -36
q-53 -28 -65 -28h-32v-64h32q28 0 95 36q11 6 18 9.5t17.5 8.5t18 7.5t11.5 2.5q12 0 65 -28q17 -9 26 -14t23 -11t25 -8.5t21 -2.5q28 0 95 36q15 8 24.5 12.5t22 10t18.5 5.5q12 0 65 -28q67 -36 95 -36t95 36q15 8 24.5 12.5t22 10t18.5 5.5q12 0 65 -28q67 -36 95 -36
h32v64h-32z" />
    <glyph glyph-name="uniE61C" unicode="&#xe61c;" 
d="M829 617q-65 64 -148.5 97.5t-168.5 33.5t-168.5 -33.5t-148.5 -97.5q-86 -86 -116.5 -201.5t0 -231t116.5 -201.5q65 -64 148.5 -97.5t168.5 -33.5t168.5 33.5t148.5 97.5q86 86 116.5 201.5t0 231t-116.5 201.5zM552 31q-17 -15 -40 -15q-22 0 -40 15q-16 16 -17 41
q0 24 16.5 40t40 16t40.5 -16t17 -40q0 -26 -17 -41zM566 447l-16 -185q-3 -33 -11 -51q-2 -2 -3 -4l-4 -4q-1 -2 -3 -3.5t-4 -2.5t-5 -1l-4 -2h-6q-10 0 -17 4t-11 13q-8 17 -11 52l-12 180q-4 52 -4 75q0 31 16.5 48.5t43.5 17.5q32 0 43 -22q3 -8 5.5 -17.5t4 -21.5
t1.5 -26q0 -24 -3 -50z" />
    <glyph glyph-name="uniE61D" unicode="&#xe61d;" 
d="M512 300zM448 300q0 26 19 45t45 19t45 -19t19 -45t-19 -45t-45 -19t-45 19t-19 45zM256 300zM192 300q0 26 19 45t45 19t45 -19t19 -45t-19 -45t-45 -19t-45 19t-19 45zM768 300zM704 300q0 26 19 45t45 19t45 -19t19 -45t-19 -45t-45 -19t-45 19t-19 45z" />
    <glyph glyph-name="uniE61E" unicode="&#xe61e;" 
d="M699 -125q9 -10 9 -23t-9 -23q-9 -9 -22.5 -9t-22.5 9l-453 453q-9 9 -9 22.5t9 22.5q10 9 23 9t23 -9zM247 282q-10 -9 -23 -9t-23 9q-6 6 -8 14.5t0 16.5t8 14l453 453q9 9 22.5 9t22.5 -9q3 -3 5 -6t3 -6.5t1.5 -7t0 -7t-1.5 -7t-3 -6.5t-5 -6z" />
    <glyph glyph-name="uniE61F" unicode="&#xe61f;" 
d="M201 734q-9 10 -9 23t9 23q10 9 23 9t23 -9l452 -453q6 -6 8.5 -14t0 -16.5t-8.5 -14.5q-9 -9 -22.5 -9t-22.5 9zM654 327q6 6 14 8.5t16.5 0t14.5 -8.5q9 -9 9 -22.5t-9 -22.5l-452 -453q-10 -9 -23 -9t-23 9l-4 6q-2 3 -3 6.5t-1.5 7t0 7t1.5 7t3 6.5l4 6z" />
    <glyph glyph-name="uniE620" unicode="&#xe620;" 
d="M672 172l-192 384h-64l-192 -384h64l32 64h256l32 -64h64zM352 300l96 192l96 -192h-192zM877 25l-116 117q71 100 71 222q0 159 -112.5 271.5t-271.5 112.5t-271.5 -112.5t-112.5 -271.5t112.5 -271.5t271.5 -112.5q122 0 222 71l117 -116q12 -13 28.5 -17t33 0t28.5 17
q19 19 19 45t-19 45zM128 364q0 132 94 226t226 94t226 -94t94 -226q0 -101 -60 -185q-31 -43 -74 -74q-84 -61 -186 -61q-132 0 -226 94t-94 226z" />
    <glyph glyph-name="uniE621" unicode="&#xe621;" 
d="M877 25l-116 117q71 100 71 222q0 159 -112.5 271.5t-271.5 112.5t-271.5 -112.5t-112.5 -271.5t112.5 -271.5t271.5 -112.5q122 0 222 71l117 -116q12 -13 28.5 -17t33 0t28.5 17q19 19 19 45t-19 45zM634 105q-84 -61 -186 -61q-132 0 -226 94t-94 226t94 226t226 94
t226 -94t94 -226q0 -101 -60 -185q-31 -43 -74 -74zM608 556h-64l-85 -128h-22l-85 128h-64l85 -128h-117v-64h160v-96h-128v-64h128v-96h64v96h128v64h-128v96h160v64h-117z" />
    <glyph glyph-name="uniE622" unicode="&#xe622;" 
d="M945 -18q14 20 15 45.5t-11.5 51.5t-36.5 46l-45 38q-25 21 -54 28.5t-55 1t-43 -25.5l-40 -48q-32 -4 -70 4.5t-76.5 28t-70.5 45.5l-30 26q-32 26 -57.5 60.5t-40.5 71t-17 68.5l55 65q16 20 18 47t-10.5 54t-37.5 48l-45 38q-38 31 -82.5 32t-69.5 -29l-11 -13
l-19 -23l-30 -36q-16 -19 -16.5 -54t12.5 -77t38.5 -91t58.5 -97t74.5 -95t86.5 -84l27 -23q66 -55 150 -99.5t159.5 -68.5t138 -24t86.5 29l15 19l31 36l4 4z" />
    <glyph glyph-name="uniE623" unicode="&#xe623;" 
d="M512 516q-28 65 -73.5 106t-94 54.5t-99 2.5t-90.5 -43.5t-65 -91t-26 -133.5q0 -35 8 -66t25.5 -56.5t35.5 -45.5t46 -40t48.5 -33t52 -31.5t46.5 -28.5q71 -46 124 -104t62 -90q5 19 31 52t67.5 72.5t87.5 71.5q18 13 54 35t60.5 37.5t55 41t49 50.5t31 60.5t12.5 76.5
q0 56 -15 103.5t-40 79.5t-58.5 53t-70 28t-75 0.5t-73.5 -26t-65.5 -54t-50.5 -81.5z" />
    <glyph glyph-name="uniE624" unicode="&#xe624;" 
d="M1024 44v128h-762q-2 33 -40 79t-83.5 71t-65.5 4q-9 -9 -9 -24v126h-64v-640h64v128h896v-128h64v128v64h-64h-896v64h960zM64 302q1 -27 28 -64t64 -66h-92v130zM736 236q93 0 158.5 65.5t65.5 158.5t-65.5 158.5t-158.5 65.5t-158.5 -65.5t-65.5 -158.5t65.5 -158.5
t158.5 -65.5zM608 492h96v96q0 13 9.5 22.5t22.5 9.5t22.5 -9.5t9.5 -22.5v-96h96q13 0 22.5 -9.5t9.5 -22.5t-9.5 -22.5t-22.5 -9.5h-96v-96q0 -13 -9.5 -22.5t-22.5 -9.5t-22.5 9.5t-9.5 22.5v96h-96q-13 0 -22.5 9.5t-9.5 22.5t9.5 22.5t22.5 9.5z" />
    <glyph glyph-name="uniE625" unicode="&#xe625;" 
d="M1024 44v128h-762q-2 33 -40 79t-83.5 71t-65.5 4q-9 -9 -9 -24v126h-64v-640h64v128h896v-128h64v128v64h-64h-896v64h960zM64 302q1 -27 28 -64t64 -66h-92v130z" />
    <glyph glyph-name="uniE626" unicode="&#xe626;" 
d="M857 366l-568 1q0 8 -0.5 40.5t-0.5 49t2.5 47t7 50t13.5 42t23 38.5q19 22 31 33.5t33.5 27t49.5 22t64 6.5q70 2 131.5 -49.5t91.5 -128.5q9 -23 18.5 -33.5t25.5 -11.5q17 0 28.5 6.5t16 16.5t6 22.5t-0.5 23.5t-5 20q-87 223 -312 223q-40 0 -70 -4.5t-57 -15
t-49.5 -27t-46.5 -42.5q-22 -25 -39 -56.5t-25.5 -63t-14.5 -65.5t-7.5 -64t-2.5 -58.5t0 -48.5l-33 -1q-23 0 -39.5 -16.5t-16.5 -38.5v-468q0 -23 16.5 -39t39.5 -16h690q11 0 21.5 4.5t18 12t12 17.5t4.5 21v468q0 11 -4.5 21t-12 17.5t-18 12t-21.5 4.5v0zM825 -78
q0 -19 -13 -32q-7 -6 -14.5 -9.5t-17.5 -3.5h-535q-9 0 -17 3.5t-14 9.5q-5 5 -7.5 10t-4 10.5t-1.5 11.5v312q0 5 1 10t3 9.5t5 8.5t7 7t8.5 5t9.5 3.5t10 1.5h535q19 0 32 -13t13 -32v-312zM825 -78z" />
    <glyph glyph-name="uniE627" unicode="&#xe627;" 
d="M925 713q-18 19 -41 30.5t-47.5 15t-49 0t-47 -15t-41.5 -30.5l-543 -543q-17 -17 -40 -61.5t-40.5 -95.5t-23 -96t13.5 -63q18 -19 63 -13.5t96 23t95.5 40.5t61.5 40l543 543q47 47 47 113.5t-47 112.5zM880.5 668.5q18.5 -18.5 25 -43.5t0 -49.5t-25.5 -43.5l-36 -35
q-16 42 -54 81q-38 38 -81 54l35 36q19 19 43.5 25.5t49.5 0t43.5 -25zM720 553l-428 -428q-5 -5 -25 1t-43 22l430 430q1 1 5 1t10.5 -1.5t14 -4t17 -8t19.5 -12.5zM114 -97q1 30 22.5 93t45.5 103q42 -32 83 -38l8 -8q3 -20 12.5 -41t25.5 -42q-40 -23 -103 -44.5
t-94 -22.5zM360 12q-16 23 -22 43t-1 25l428 428q11 -16 18 -31.5t7.5 -23t-0.5 -11.5z" />
    <glyph glyph-name="uniE628" unicode="&#xe628;" 
d="M896 684h-768q-27 0 -45.5 -18.5t-18.5 -45.5v-512q0 -27 18.5 -45.5t45.5 -18.5h449l-19 -192l258 192h80q27 0 45.5 18.5t18.5 45.5v512q0 27 -18.5 45.5t-45.5 18.5zM896 108h-80q-29 0 -48 -22l-164 -157l38 139q-3 7 -7.5 13.5t-10 11t-12 8t-13.5 5.5t-15 2h-456
v512h768v-512zM304 364zM256 364q0 20 14 34t34 14t34 -14t14 -34t-14 -34t-34 -14t-34 14t-14 34zM512 364zM464 364q0 20 14 34t34 14t34 -14t14 -34t-14 -34t-34 -14t-34 14t-14 34zM720 364zM672 364q0 20 14 34t34 14t34 -14t14 -34t-14 -34t-34 -14t-34 14t-14 34z
" />
    <glyph glyph-name="uniE629" unicode="&#xe629;" 
d="M652 278q53 35 84.5 91.5t31.5 122.5q0 106 -75 181t-181 75t-181 -75t-75 -181q0 -66 31.5 -122.5t84.5 -91.5q-136 -45 -222 -162t-86 -264h64q0 104 51 192.5t139.5 140t191.5 51.5h2h1h1q103 0 191.5 -51.5t139.5 -140t51 -192.5h64q0 98 -39.5 185t-109.5 149
t-159 92zM320 492q0 79 56.5 135.5t135.5 56.5t135.5 -56.5t56.5 -135.5t-55.5 -135t-134.5 -57h-1h-1h-1h-1q-79 1 -134.5 57t-55.5 135z" />
    <glyph glyph-name="uniE62A" unicode="&#xe62a;" 
d="M704 502h-384q-7 0 -12.5 -2.5t-10 -7t-7 -10t-2.5 -12.5q0 -13 9.5 -22.5t22.5 -9.5h384q4 0 8.5 1t8 3.5t6.5 5t5 6t3 8t1 8.5q0 13 -9.5 22.5t-22.5 9.5zM704 310h-384q-7 0 -12.5 -2.5t-10 -7t-7 -10t-2.5 -12.5q0 -9 4.5 -16t11.5 -11.5t16 -4.5h384q13 0 22.5 9.5
t9.5 22.5t-9.5 22.5t-22.5 9.5zM704 118h-384q-13 0 -22.5 -9.5t-9.5 -22.5t9.5 -22.5t22.5 -9.5h384q13 0 22.5 9.5t9.5 22.5q0 9 -4.5 16.5t-11.5 11.5t-16 4zM384 684h256v-64h-256v64zM740 684h-36v-64h36q27 0 45.5 -19t18.5 -45v-576q0 -13 -5 -25t-13.5 -20.5
t-20.5 -13.5t-25 -5h-448q-26 0 -45 19t-19 45v576q0 26 19 45t45 19h28v64h-28q-53 0 -90.5 -37.5t-37.5 -90.5v-576q0 -53 37.5 -90.5t90.5 -37.5h448q35 0 64.5 17t46.5 46.5t17 64.5v576q0 35 -17 64.5t-46.5 46.5t-64.5 17z" />
    <glyph glyph-name="uniE62B" unicode="&#xe62b;" 
d="M864 364h-602v58q0 103 73.5 176t176.5 73q51 0 97.5 -19.5t81.5 -55.5t53 -83q6 -15 21 -21.5t29.5 -0.5t21 20.5t0.5 29.5q-37 94 -120 150.5t-184 56.5q-89 0 -164 -43.5t-118.5 -119t-43.5 -163.5v-58h-26q-27 0 -45.5 -18.5t-18.5 -45.5v-384q0 -27 18.5 -45.5
t45.5 -18.5h704q27 0 45.5 18.5t18.5 45.5v384q0 27 -18.5 45.5t-45.5 18.5zM851 -71h-678v358h678v-358z" />
  </font>
</defs>
</svg>
